PathFileType	4	(X/Y/Z)	C:/Users/beibeiliu/ov580/test_trc/User3\sequence.11_training_dense_left.trc
DataRate	CameraRate	NumFrames	NumMarkers	Units	OrigDataRate	OrigDataStartFrame	OrigNumFrames
120	120	7	19	mm	120	148	196
Frame#	Time	ThumbCMC			ThumbMCP			ThumbIP			ThumbTip			IndexMCP			IndexPIP			IndexTip			MiddleMCP			MiddlePIP			MiddleTip			RingMCP			RingPIP			RingTip			PinkyMCP			PinkyPIP			PinkyTip			BackHand1			BackHand2			BackHand3	
		X0	Y0	Z0	X1	Y1	Z1	X2	Y2	Z2	X3	Y3	Z3	X4	Y4	Z4	X5	Y5	Z5	X6	Y6	Z6	X7	Y7	Z7	X8	Y8	Z8	X9	Y9	Z9	X10	Y10	Z10	X11	Y11	Z11	X12	Y12	Z12	X13	Y13	Z13	X14	Y14	Z14	X15	Y15	Z15	X16	Y16	Z16	X17	Y17	Z17	X18	Y18	Z18	
147	1.225	-197.915	-15.9256	3.76319	-186.539	-0.240126	-15.5045	-178.425	12.8761	-38.5039	-166.311	29.0049	-49.2037	-218.743	-15.2662	-68.1897	-217.557	-10.0688	-91.388	-220.446	-2.52423	-113.922	-244.178	-33.625	-72.2937	-245.058	-29.9329	-95.5133	-249.525	-24.3065	-124.493	-254.956	-53.4306	-60.7607	-260.221	-52.4744	-84.915	-271.934	-54.7732	-108.548	-263.446	-74.4048	-43.3906	-270.365	-79.7245	-63.2268	-284.081	-85.5281	-79.0475	-253.692	-44.4303	-14.8699	-251.336	-39.8967	18.9949	-227.243	-17.6106	-2.22103	
148	1.23333	-193.18	-17.495	7.76932	-181.903	-4.35452	-15.579	-169.711	9.85411	-34.4369	-154.797	23.4934	-44.3032	-216.242	-16.7306	-66.7776	-214.606	-11.1154	-90.4577	-217.252	-1.75358	-114.558	-238.888	-27.5143	-70.845	-241.317	-24.915	-96.878	-248.766	-20.0168	-125.884	-256.227	-48.926	-62.2177	-260.634	-46.7674	-83.9025	-268.527	-44.2153	-109.925	-264.233	-67.534	-44.2104	-273.982	-71.7029	-63.4011	-289.193	-76.9207	-79.7294	-252.121	-39.8941	-14.9455	-249.295	-34.9569	19.6622	-225.762	-17.6495	-2.63162	
149	1.24167	-192.258	-21.854	8.10471	-175.588	-8.20263	-10.294	-161.673	7.86941	-33.9513	-148.715	19.0135	-45.1565	-212.424	-16.0526	-70.328	-211.183	-12.1988	-89.0688	-208.588	-0.758941	-115.415	-235.659	-26.381	-68.7421	-240.233	-23.5957	-94.3483	-243.153	-14.5083	-128.022	-251.694	-42.7696	-62.046	-260.399	-42.7877	-84.4908	-269.278	-41.8568	-105.198	-263.098	-63.602	-42.5932	-274.975	-68.4701	-58.4762	-289.839	-71.4676	-78.1404	-252.34	-37.1343	-13.3429	-251.386	-36.5353	18.6933	-221.391	-15.6737	-1.15725	
150	1.25	-190.427	-24.8042	6.94221	-172.684	-13.4838	-13.61	-156.604	-0.792568	-28.7933	-141.626	9.02806	-39.6707	-209.331	-18.7537	-65.5219	-202.47	-10.6308	-90.029	-205.809	-4.70437	-112.28	-236.457	-26.9529	-70.4191	-238.678	-23.4257	-97.6399	-238.892	-16.0723	-122.359	-249.629	-39.1132	-62.8329	-258.509	-39.5969	-83.7069	-266.278	-37.6451	-106.81	-266.711	-60.4015	-41.8028	-275.816	-63.8574	-60.6572	-292.161	-63.227	-76.9202	-247.672	-34.6417	-9.01093	-247.906	-34.4621	18.6256	-219.343	-16.1749	0.360361	
151	1.25833	-184.241	-25.0765	7.94101	-172.543	-19.8802	-12.9231	-152.228	-5.02507	-32.6068	-139.259	0.654435	-44.5336	-205.487	-20.9419	-63.6367	-199.758	-15.5586	-87.8944	-199.568	-8.44157	-112.693	-233.164	-28.6473	-66.823	-234.532	-23.4862	-94.3257	-235.137	-16.1383	-124.307	-250.385	-40.2657	-62.0558	-255.746	-39.0999	-83.1902	-263.601	-36.9984	-103.545	-263.515	-57.5461	-43.2869	-275.923	-61.5874	-58.0076	-289.368	-61.2316	-71.9962	-249.383	-33.5511	-11.764	-248.294	-33.2151	18.9223	-219.588	-19.9275	-2.38857	
152	1.26667	-182.663	-30.1553	8.69808	-167.773	-25.7846	-8.24546	-149.079	-13.8721	-28.9263	-135.132	-8.00954	-41.4333	-199.475	-24.4218	-65.8391	-192.673	-19.6416	-89.0577	-193.239	-13.6189	-110.024	-229.497	-29.5661	-68.6807	-227.647	-25.5806	-93.8898	-230.538	-20.5147	-122.266	-246.115	-41.2906	-58.588	-253.307	-40.7166	-80.0342	-262.653	-37.4841	-107.226	-265.5	-58.5812	-40.0138	-272.709	-59.3862	-59.2134	-287.232	-58.7565	-74.324	-244.59	-34.25	-8.48126	-242.577	-29.5653	19.3795	-215.168	-21.137	0.879655	
153	1.275	-181.959	-35.181	9.73731	-162.924	-28.2187	-8.68395	-148.153	-21.5914	-31.1967	-131.872	-17.0614	-41.4737	-200.366	-30.1165	-63.7274	-189.929	-23.9401	-91.3176	-190.472	-19.6629	-114.455	-223.637	-30.1933	-71.713	-225.7	-29.3788	-94.3362	-222.748	-23.2218	-123.511	-247.548	-43.6021	-56.7425	-252.328	-40.4809	-82.5261	-256.556	-38.5717	-103.997	-260.655	-57.0252	-41.0988	-275.297	-59.0349	-58.9809	-287.262	-56.2515	-72.4539	-244.089	-34.9261	-12.3197	-242.233	-30.3381	21.2276	-211.852	-22.1144	2.02409	
